<svg width="100" height="100" viewBox="0 0 100 100" fill="none" xmlns="http://www.w3.org/2000/svg">
<rect width="100" height="100" fill="black"/>
<path d="M5.91016 40.6836H9.625V50.7734C9.625 51.6016 9.73828 52.3398 9.96484 52.9883C10.1914 53.6289 10.5273 54.1719 10.9727 54.6172C11.4258 55.0625 11.9844 55.4023 12.6484 55.6367C13.3125 55.8633 14.0859 55.9766 14.9688 55.9766C15.8438 55.9766 16.6133 55.8633 17.2773 55.6367C17.9492 55.4023 18.5078 55.0625 18.9531 54.6172C19.4062 54.1719 19.7461 53.6289 19.9727 52.9883C20.1992 52.3398 20.3125 51.6016 20.3125 50.7734V40.6836H24.0273V51.2188C24.0273 52.4219 23.8242 53.5156 23.418 54.5C23.0117 55.4844 22.4219 56.3281 21.6484 57.0312C20.875 57.7344 19.9258 58.2773 18.8008 58.6602C17.6836 59.043 16.4062 59.2344 14.9688 59.2344C13.5312 59.2344 12.25 59.043 11.125 58.6602C10.0078 58.2773 9.0625 57.7344 8.28906 57.0312C7.51562 56.3281 6.92578 55.4844 6.51953 54.5C6.11328 53.5156 5.91016 52.4219 5.91016 51.2188V40.6836ZM34.082 43.9414H27.3203V40.6836H44.5586V43.9414H37.7969V59H34.082V43.9414ZM48.0625 40.6836H51.8008V59H48.0625V40.6836ZM56.5469 40.6836H60.2617V55.7422H70.9141V59H56.5469V40.6836Z" fill="white"/>
<path d="M73.4453 49.7891C73.4453 48.4062 73.6992 47.1406 74.207 45.9922C74.7148 44.8438 75.4258 43.8594 76.3398 43.0391C77.2617 42.2109 78.3633 41.5703 79.6445 41.1172C80.9336 40.6641 82.3594 40.4375 83.9219 40.4375C85.4766 40.4375 86.8984 40.6641 88.1875 41.1172C89.4766 41.5703 90.5781 42.2109 91.4922 43.0391C92.4141 43.8594 93.1289 44.8438 93.6367 45.9922C94.1445 47.1406 94.3984 48.4062 94.3984 49.7891C94.3984 51.1797 94.1445 52.457 93.6367 53.6211C93.1289 54.7773 92.4141 55.7734 91.4922 56.6094C90.5781 57.4453 89.4766 58.0977 88.1875 58.5664C86.8984 59.0273 85.4766 59.2578 83.9219 59.2578C82.3594 59.2578 80.9336 59.0273 79.6445 58.5664C78.3633 58.0977 77.2617 57.4453 76.3398 56.6094C75.4258 55.7734 74.7148 54.7773 74.207 53.6211C73.6992 52.457 73.4453 51.1797 73.4453 49.7891ZM77.1602 49.7891C77.1602 50.7344 77.3281 51.5859 77.6641 52.3438C78.0078 53.1016 78.4805 53.75 79.082 54.2891C79.6914 54.8203 80.4062 55.2305 81.2266 55.5195C82.0547 55.8086 82.9531 55.9531 83.9219 55.9531C84.8906 55.9531 85.7852 55.8086 86.6055 55.5195C87.4336 55.2305 88.1484 54.8203 88.75 54.2891C89.3516 53.75 89.8242 53.1016 90.168 52.3438C90.5117 51.5859 90.6836 50.7344 90.6836 49.7891C90.6836 48.8438 90.5117 47.9961 90.168 47.2461C89.8242 46.4961 89.3516 45.8633 88.75 45.3477C88.1484 44.8242 87.4336 44.4258 86.6055 44.1523C85.7852 43.8789 84.8906 43.7422 83.9219 43.7422C82.9531 43.7422 82.0547 43.8789 81.2266 44.1523C80.4062 44.4258 79.6914 44.8242 79.082 45.3477C78.4805 45.8633 78.0078 46.4961 77.6641 47.2461C77.3281 47.9961 77.1602 48.8438 77.1602 49.7891Z" fill="#0096FF"/>
</svg>
